<svg xmlns="http://www.w3.org/2000/svg" width="128" height="128" id="svg5048" version="1.1"><defs id="defs5050"><filter id="filter4004-4" x="0" y="0" width="1" height="1" color-interpolation-filters="sRGB"><feColorMatrix id="feColorMatrix4006-0" values="1" in="SourceGraphic" type="saturate" result="result2"/><feFlood id="feFlood4008-2" flood-color="#FAF7F7" flood-opacity="1" result="result1"/><feBlend id="feBlend4010-1" in2="result2" mode="multiply" in="result1" result="result3"/><feComposite id="feComposite4012-3" in2="SourceGraphic" operator="in" result="result4"/></filter><filter id="filter4004-44" x="0" y="0" width="1" height="1" color-interpolation-filters="sRGB"><feColorMatrix id="feColorMatrix4006-8" values="1" in="SourceGraphic" type="saturate" result="result2"/><feFlood id="feFlood4008-0" flood-color="#FAF7F7" flood-opacity="1" result="result1"/><feBlend id="feBlend4010-5" in2="result2" mode="multiply" in="result1" result="result3"/><feComposite id="feComposite4012-6" in2="SourceGraphic" operator="in" result="result4"/></filter><filter id="filter4004-4-4" x="0" y="0" width="1" height="1" color-interpolation-filters="sRGB"><feColorMatrix id="feColorMatrix4006-0-1" values="1" in="SourceGraphic" type="saturate" result="result2"/><feFlood id="feFlood4008-2-5" flood-color="#FAF7F7" flood-opacity="1" result="result1"/><feBlend id="feBlend4010-1-5" in2="result2" mode="multiply" in="result1" result="result3"/><feComposite id="feComposite4012-3-5" in2="SourceGraphic" operator="in" result="result4"/></filter><style id="current-color-scheme" type="text/css"></style></defs><g id="layer1" transform="translate(-6.13 -913.753)"><path d="M70.13 917.753c-10.813 0-21.023 2.77-29.766 7.734l5.39 5.156.47.47 20.624 20.858 5.391-5.39-18.75-18.516c5.238-1.76 10.794-2.812 16.64-2.812 29.085 0 52.5 23.415 52.5 52.5a52.44 52.44 0 0 1-5.859 24.14l5.625 5.626c4.966-8.744 7.735-18.954 7.735-29.766 0-33.24-26.76-60-60-60zm-52.266 30.234c-4.965 8.744-7.734 18.953-7.734 29.766 0 33.24 26.76 60 60 60 10.813 0 21.022-2.77 29.765-7.734l-5.156-5.157-.469-.468-20.859-20.86-5.156 5.39 18.515 18.516c-5.237 1.76-10.793 2.813-16.64 2.813-29.085 0-52.5-23.415-52.5-52.5 0-8.719 2.129-16.92 5.86-24.14z" id="rect4085-6" color="#eff0f1" fill="#fff" fill-opacity="1" stroke="none"/></g></svg>