<svg xmlns="http://www.w3.org/2000/svg" width="128" height="128" id="svg5048" version="1.1"><defs id="defs5050"><filter id="filter4004-4" x="0" y="0" width="1" height="1" color-interpolation-filters="sRGB"><feColorMatrix id="feColorMatrix4006-0" values="1" in="SourceGraphic" type="saturate" result="result2"/><feFlood id="feFlood4008-2" flood-color="#FAF7F7" flood-opacity="1" result="result1"/><feBlend id="feBlend4010-1" in2="result2" mode="multiply" in="result1" result="result3"/><feComposite id="feComposite4012-3" in2="SourceGraphic" operator="in" result="result4"/></filter><style id="current-color-scheme" type="text/css"></style></defs><g id="layer1" transform="translate(-6.13 -913.753)"><path d="M62.63 917.753v52.5h15v-52.5zm-7.5 1.992c-25.917 6.635-45 29.966-45 58.008 0 33.24 26.76 60 60 60 33.24 0 60-26.76 60-60 0-28.042-19.084-51.373-45-58.008v7.778c21.713 6.43 37.5 26.377 37.5 50.23 0 29.085-23.415 52.5-52.5 52.5s-52.5-23.415-52.5-52.5c0-23.853 15.787-43.8 37.5-50.23z" id="rect4149" color="#eff0f1" fill="#fff" fill-opacity="1" stroke="none"/></g></svg>