<svg xmlns="http://www.w3.org/2000/svg" width="32" height="32"><path d="M16.242.355C11.922.7 8.25 4.137 7.117 8.25c-.554 1.676-.726 3.52-.37 5.242-1.778.813-1.9 3.27-1.063 4.813.5 1.027 1.43 1.886 2.566 2.136.691 1.465 1.617 2.872 2.918 3.872.078 2.91-2.621 5.035-5.242 5.62-1.414.403-2.82.47-4.274.462-.25.394-.402 1.296.328 1.183 3.372.078 7.137-.894 9.204-3.765.566-.696.847-1.68 1.129-2.426 2.832 1.87 7.097 1.648 9.324-1.075a9.832 9.832 0 0 0 2.093-3.46c.774-.864 2.114-1.16 2.567-2.332.918-1.551.863-3.95-.777-5.004-.305-.864.23-1.793-.094-2.668-.27-2.27-1.235-4.524-2.98-6.043-.434.242-.919.828-.395 1.258 1.797 1.87 2.582 4.667 2.164 7.21-.344.364-.805 1.184-.078 1.418.488 0 1.258-.16 1.36.543.8 1.735-.513 3.938-2.352 4.254-.75 1.625-1.407 3.38-2.813 4.578-2.035 2.028-5.422 1.72-7.61.122-1.394-1.153-.558-.422-1.773-1.676-.918-.867-1.453-2.117-2.168-3.067-2.039-.414-3.3-3.277-1.758-4.851.63.554 1.875-.36 1.067-1-.348-.617-.356-.832-.356-1.34-.12-3.027 1.07-6.117 3.207-8.274 1.434-1.43 3.407-2.328 5.407-2.445.437-.226.515-1.168-.106-1.18zm6.727 28.2c-.809.476-.461.886.187 1.23 2.063 1.39 4.617 1.992 7.094 1.836.32-.465.102-1.297-.574-1.137-2.305.082-4.719-.605-6.512-2.132l-.105.113zm0 0" fill="#fff" stroke-width="1" stroke="#fff" stroke-opacity=".996"/></svg>